<svg width="622" height="212" viewBox="0 0 622 212" fill="none" xmlns="http://www.w3.org/2000/svg">
<g id="Net">
<g id="circle">
<ellipse id="Ellipse 1" cx="17" cy="7.5" rx="10" ry="7.5" fill="#ff5851"/>
<ellipse id="Ellipse 4" cx="507" cy="7.5" rx="10" ry="7.5" fill="#ff5851"/>
<ellipse id="Ellipse 10" cx="458" cy="7.5" rx="10" ry="7.5" fill="#ff5851"/>
<ellipse id="Ellipse 11" cx="311" cy="7.5" rx="10" ry="7.5" fill="#ff5851"/>
<ellipse id="Ellipse 12" cx="262" cy="7.5" rx="10" ry="7.5" fill="#ff5851"/>
<ellipse id="Ellipse 13" cx="213" cy="7.5" rx="10" ry="7.5" fill="#ff5851"/>
<ellipse id="Ellipse 14" cx="409" cy="7.5" rx="10" ry="7.5" fill="#ff5851"/>
<ellipse id="Ellipse 15" cx="164" cy="7.5" rx="10" ry="7.5" fill="#ff5851"/>
<ellipse id="Ellipse 16" cx="115" cy="7.5" rx="10" ry="7.5" fill="#ff5851"/>
<ellipse id="Ellipse 17" cx="66" cy="7.5" rx="10" ry="7.5" fill="#ff5851"/>
<ellipse id="Ellipse 2" cx="360" cy="7.5" rx="10" ry="7.5" fill="#ff5851"/>
</g>
<g id="square">
<rect id="Rectangle 1" x="7" y="197" width="20" height="15" fill="#ff5851"/>
<rect id="Rectangle 2" x="497" y="197" width="20" height="15" fill="#ff5851"/>
<rect id="Rectangle 3" x="448" y="197" width="20" height="15" fill="#ff5851"/>
<rect id="Rectangle 4" x="399" y="197" width="20" height="15" fill="#ff5851"/>
<rect id="Rectangle 5" x="350" y="197" width="20" height="15" fill="#ff5851"/>
<rect id="Rectangle 6" x="301" y="197" width="20" height="15" fill="#ff5851"/>
<rect id="Rectangle 7" x="252" y="197" width="20" height="15" fill="#ff5851"/>
<rect id="Rectangle 8" x="203" y="197" width="20" height="15" fill="#ff5851"/>
<rect id="Rectangle 9" x="154" y="197" width="20" height="15" fill="#ff5851"/>
<rect id="Rectangle 10" x="105" y="197" width="20" height="15" fill="#ff5851"/>
<rect id="Rectangle 11" x="56" y="197" width="20" height="15" fill="#ff5851"/>
</g>
<g id="arrow">
<path id="Arrow 1" d="M23.6421 91C23.6421 90.1715 22.9706 89.5 22.1421 89.5H8.64214C7.81371 89.5 7.14214 90.1715 7.14214 91C7.14214 91.8284 7.81371 92.5 8.64214 92.5H20.6421V104.5C20.6421 105.328 21.3137 106 22.1421 106C22.9706 106 23.6421 105.328 23.6421 104.5V91ZM9.06066 106.203L23.2028 92.0606L21.0815 89.9393L6.93934 104.081L9.06066 106.203Z" fill="#ff5851"/>
<path id="Arrow 2" d="M564.642 91C564.642 90.1715 563.971 89.5 563.142 89.5H549.642C548.814 89.5 548.142 90.1715 548.142 91C548.142 91.8284 548.814 92.5 549.642 92.5H561.642V104.5C561.642 105.328 562.314 106 563.142 106C563.971 106 564.642 105.328 564.642 104.5V91ZM550.061 106.203L564.203 92.0606L562.081 89.9393L547.939 104.081L550.061 106.203Z" fill="#ff5851"/>
<path id="Arrow 3" d="M510.642 91C510.642 90.1715 509.971 89.5 509.142 89.5H495.642C494.814 89.5 494.142 90.1715 494.142 91C494.142 91.8284 494.814 92.5 495.642 92.5H507.642V104.5C507.642 105.328 508.314 106 509.142 106C509.971 106 510.642 105.328 510.642 104.5V91ZM496.061 106.203L510.203 92.0606L508.081 89.9393L493.939 104.081L496.061 106.203Z" fill="#ff5851"/>
<path id="Arrow 4" d="M456.642 91C456.642 90.1715 455.971 89.5 455.142 89.5H441.642C440.814 89.5 440.142 90.1715 440.142 91C440.142 91.8284 440.814 92.5 441.642 92.5H453.642V104.5C453.642 105.328 454.314 106 455.142 106C455.971 106 456.642 105.328 456.642 104.5V91ZM442.061 106.203L456.203 92.0606L454.081 89.9393L439.939 104.081L442.061 106.203Z" fill="#ff5851"/>
<path id="Arrow 5" d="M402.642 91C402.642 90.1715 401.971 89.5 401.142 89.5H387.642C386.814 89.5 386.142 90.1715 386.142 91C386.142 91.8284 386.814 92.5 387.642 92.5H399.642V104.5C399.642 105.328 400.314 106 401.142 106C401.971 106 402.642 105.328 402.642 104.5V91ZM388.061 106.203L402.203 92.0606L400.081 89.9393L385.939 104.081L388.061 106.203Z" fill="#ff5851"/>
<path id="Arrow 6" d="M348.642 91C348.642 90.1715 347.971 89.5 347.142 89.5H333.642C332.814 89.5 332.142 90.1715 332.142 91C332.142 91.8284 332.814 92.5 333.642 92.5H345.642V104.5C345.642 105.328 346.314 106 347.142 106C347.971 106 348.642 105.328 348.642 104.5V91ZM334.061 106.203L348.203 92.0606L346.081 89.9393L331.939 104.081L334.061 106.203Z" fill="#ff5851"/>
<path id="Arrow 7" d="M294.642 91C294.642 90.1715 293.971 89.5 293.142 89.5H279.642C278.814 89.5 278.142 90.1715 278.142 91C278.142 91.8284 278.814 92.5 279.642 92.5H291.642V104.5C291.642 105.328 292.314 106 293.142 106C293.971 106 294.642 105.328 294.642 104.5V91ZM280.061 106.203L294.203 92.0606L292.081 89.9393L277.939 104.081L280.061 106.203Z" fill="#ff5851"/>
<path id="Arrow 8" d="M240.642 91C240.642 90.1715 239.971 89.5 239.142 89.5H225.642C224.814 89.5 224.142 90.1715 224.142 91C224.142 91.8284 224.814 92.5 225.642 92.5H237.642V104.5C237.642 105.328 238.314 106 239.142 106C239.971 106 240.642 105.328 240.642 104.5V91ZM226.061 106.203L240.203 92.0606L238.081 89.9393L223.939 104.081L226.061 106.203Z" fill="#ff5851"/>
<path id="Arrow 9" d="M186.642 91C186.642 90.1715 185.971 89.5 185.142 89.5H171.642C170.814 89.5 170.142 90.1715 170.142 91C170.142 91.8284 170.814 92.5 171.642 92.5H183.642V104.5C183.642 105.328 184.314 106 185.142 106C185.971 106 186.642 105.328 186.642 104.5V91ZM172.061 106.203L186.203 92.0606L184.081 89.9393L169.939 104.081L172.061 106.203Z" fill="#ff5851"/>
<path id="Arrow 10" d="M132.642 91C132.642 90.1715 131.971 89.5 131.142 89.5H117.642C116.814 89.5 116.142 90.1715 116.142 91C116.142 91.8284 116.814 92.5 117.642 92.5H129.642V104.5C129.642 105.328 130.314 106 131.142 106C131.971 106 132.642 105.328 132.642 104.5V91ZM118.061 106.203L132.203 92.0606L130.081 89.9393L115.939 104.081L118.061 106.203Z" fill="#ff5851"/>
<path id="Arrow 11" d="M78.6421 91C78.6421 90.1715 77.9706 89.5 77.1421 89.5H63.6421C62.8137 89.5 62.1421 90.1715 62.1421 91C62.1421 91.8284 62.8137 92.5 63.6421 92.5H75.6421V104.5C75.6421 105.328 76.3137 106 77.1421 106C77.9706 106 78.6421 105.328 78.6421 104.5V91ZM64.0607 106.203L78.2028 92.0606L76.0815 89.9393L61.9393 104.081L64.0607 106.203Z" fill="#ff5851"/>
</g>
<g id="triangle">
<path id="Polygon 1" d="M16 43L28.9904 58H3.00962L16 43Z" fill="#ff5851"/>
<path id="Polygon 2" d="M606 43L618.99 58H593.01L606 43Z" fill="#ff5851"/>
<path id="Polygon 3" d="M547 43L559.99 58H534.01L547 43Z" fill="#ff5851"/>
<path id="Polygon 4" d="M488 43L500.99 58H475.01L488 43Z" fill="#ff5851"/>
<path id="Polygon 5" d="M429 43L441.99 58H416.01L429 43Z" fill="#ff5851"/>
<path id="Polygon 6" d="M370 43L382.99 58H357.01L370 43Z" fill="#ff5851"/>
<path id="Polygon 7" d="M311 43L323.99 58H298.01L311 43Z" fill="#ff5851"/>
<path id="Polygon 8" d="M252 43L264.99 58H239.01L252 43Z" fill="#ff5851"/>
<path id="Polygon 9" d="M193 43L205.99 58H180.01L193 43Z" fill="#ff5851"/>
<path id="Polygon 10" d="M134 43L146.99 58H121.01L134 43Z" fill="#ff5851"/>
<path id="Polygon 11" d="M75 43L87.9904 58H62.0096L75 43Z" fill="#ff5851"/>
</g>
<g id="star">
<path id="Star 1" d="M17 144L20.3677 152.637H31.2658L22.4491 157.975L25.8168 166.613L17 161.275L8.18322 166.613L11.5509 157.975L2.73415 152.637H13.6323L17 144Z" fill="#ff5851"/>
<path id="Star 2" d="M607 144L610.368 152.637H621.266L612.449 157.975L615.817 166.613L607 161.275L598.183 166.613L601.551 157.975L592.734 152.637H603.632L607 144Z" fill="#ff5851"/>
<path id="Star 3" d="M548 144L551.368 152.637H562.266L553.449 157.975L556.817 166.613L548 161.275L539.183 166.613L542.551 157.975L533.734 152.637H544.632L548 144Z" fill="#ff5851"/>
<path id="Star 4" d="M489 144L492.368 152.637H503.266L494.449 157.975L497.817 166.613L489 161.275L480.183 166.613L483.551 157.975L474.734 152.637H485.632L489 144Z" fill="#ff5851"/>
<path id="Star 5" d="M430 144L433.368 152.637H444.266L435.449 157.975L438.817 166.613L430 161.275L421.183 166.613L424.551 157.975L415.734 152.637H426.632L430 144Z" fill="#ff5851"/>
<path id="Star 6" d="M371 144L374.368 152.637H385.266L376.449 157.975L379.817 166.613L371 161.275L362.183 166.613L365.551 157.975L356.734 152.637H367.632L371 144Z" fill="#ff5851"/>
<path id="Star 7" d="M312 144L315.368 152.637H326.266L317.449 157.975L320.817 166.613L312 161.275L303.183 166.613L306.551 157.975L297.734 152.637H308.632L312 144Z" fill="#ff5851"/>
<path id="Star 8" d="M253 144L256.368 152.637H267.266L258.449 157.975L261.817 166.613L253 161.275L244.183 166.613L247.551 157.975L238.734 152.637H249.632L253 144Z" fill="#ff5851"/>
<path id="Star 9" d="M194 144L197.368 152.637H208.266L199.449 157.975L202.817 166.613L194 161.275L185.183 166.613L188.551 157.975L179.734 152.637H190.632L194 144Z" fill="#ff5851"/>
<path id="Star 10" d="M135 144L138.368 152.637H149.266L140.449 157.975L143.817 166.613L135 161.275L126.183 166.613L129.551 157.975L120.734 152.637H131.632L135 144Z" fill="#ff5851"/>
<path id="Star 11" d="M76 144L79.3677 152.637H90.2658L81.4491 157.975L84.8168 166.613L76 161.275L67.1832 166.613L70.5509 157.975L61.7342 152.637H72.6323L76 144Z" fill="#ff5851"/>
</g>
</g>
</svg>
